# Blender v2.72 (sub 0) OBJ File: ''
# www.blender.org
o Cube_Cube.003
v 1.000000 1.000000 -1.000000
v 1.000000 -1.000000 -1.000000
v -1.000000 -1.000000 -1.000000
v -1.000000 1.000000 -1.000000
v 1.000000 1.000000 1.000000
v 1.000000 -1.000000 1.000000
v -1.000000 -1.000000 1.000000
v -1.000000 1.000000 1.000000
vt 0.000000 0.000000
vt 1.000000 0.000000
vt 1.000000 1.000000
vn 0.577300 -0.577300 0.577300
vn 0.577300 -0.577300 -0.577300
vn 0.577300 0.577300 -0.577300
vn -0.577300 -0.577300 0.577300
vn -0.577300 -0.577300 -0.577300
vn -0.577300 0.577300 0.577300
vn -0.577300 0.577300 -0.577300
vn 0.577300 0.577300 0.577300
s 1
f 6/1/1 2/2/2 1/3/3
f 7/1/4 3/2/5 2/3/2
f 8/1/6 4/2/7 3/3/5
f 5/1/8 1/2/3 4/3/7
f 2/1/2 3/2/5 4/3/7
f 7/1/4 6/2/1 5/3/8
f 5/1/8 6/2/1 1/3/3
f 6/1/1 7/2/4 2/3/2
f 7/1/4 8/2/6 3/3/5
f 8/1/6 5/2/8 4/3/7
f 1/1/3 2/2/2 4/3/7
f 8/1/6 7/2/4 5/3/8
